inDegrees=no
num_controls=7
num_derivatives=13
num_iterations=60
num_multipliers=7
num_parameters=0
num_slacks=7
num_states=26
objective=0.430917
objective_accelerations=0.068697
objective_balance=0.003702
objective_effort=0.027991
objective_height=0.324721
objective_ligament=0.005806
solver_duration=961.735229
status=Solve_Succeeded
success=true
DataType=double
version=3
OpenSimVersion=4.5
endheader
time	/jointset/ground_pelvis/pelvis_tilt/value	/jointset/ground_pelvis/pelvis_tx/value	/jointset/ground_pelvis/pelvis_ty/value	/jointset/hip_l/hip_flexion_l/value	/jointset/hip_l/hip_adduction_l/value	/jointset/hip_l/hip_rotation_l/value	/jointset/back/lumbar_extension/value	/jointset/patellofemoral_l/patellar_flexion_l/value	/jointset/knee_l/knee_flexion_l/value	/jointset/knee_l/knee_adduction_l/value	/jointset/knee_l/knee_rotation_l/value	/jointset/ankle_l/ankle_angle_l/value	/jointset/subtalar_l/subtalar_angle_l/value	/jointset/ground_pelvis/pelvis_tilt/speed	/jointset/ground_pelvis/pelvis_tx/speed	/jointset/ground_pelvis/pelvis_ty/speed	/jointset/hip_l/hip_flexion_l/speed	/jointset/hip_l/hip_adduction_l/speed	/jointset/hip_l/hip_rotation_l/speed	/jointset/back/lumbar_extension/speed	/jointset/patellofemoral_l/patellar_flexion_l/speed	/jointset/knee_l/knee_flexion_l/speed	/jointset/knee_l/knee_adduction_l/speed	/jointset/knee_l/knee_rotation_l/speed	/jointset/ankle_l/ankle_angle_l/speed	/jointset/subtalar_l/subtalar_angle_l/speed	/forceset/tau_hip_flexion_l	/forceset/tau_hip_adduction_l	/forceset/tau_hip_rotation_l	/forceset/tau_knee_flexion_l	/forceset/tau_ankle_angle_l	/forceset/tau_subtalar_angle_l	/forceset/tau_lumbar_extension	lambda_cid13_p0	lambda_cid13_p1	lambda_cid13_p2	lambda_cid13_p3	lambda_cid13_p4	lambda_cid13_p5	lambda_cid14_p0	/jointset/ground_pelvis/pelvis_tilt/accel	/jointset/ground_pelvis/pelvis_tx/accel	/jointset/ground_pelvis/pelvis_ty/accel	/jointset/hip_l/hip_flexion_l/accel	/jointset/hip_l/hip_adduction_l/accel	/jointset/hip_l/hip_rotation_l/accel	/jointset/back/lumbar_extension/accel	/jointset/patellofemoral_l/patellar_flexion_l/accel	/jointset/knee_l/knee_flexion_l/accel	/jointset/knee_l/knee_adduction_l/accel	/jointset/knee_l/knee_rotation_l/accel	/jointset/ankle_l/ankle_angle_l/accel	/jointset/subtalar_l/subtalar_angle_l/accel	gamma_cid13_p0	gamma_cid13_p1	gamma_cid13_p2	gamma_cid13_p3	gamma_cid13_p4	gamma_cid13_p5	gamma_cid14_p0
0	-0.03772384270268287	0.06811723167483723	0.895878416437392	0.1955287580552426	-0.3227553645792425	-0.4683283693862061	-0.1379045077516729	0.07015288079085309	0.07015288079084844	-0.1745321511918745	-0.1035486686082024	-0.06701059314715049	0.002843332315600196	0	0	0	0	0	0	0	0	0	0	0	0	0	0.133646551238218	-0.1014227989781196	-0.0338468020970903	-0.2781740844445736	0.2601502266835856	-0.03740671491581345	-0.07351598953944197	47.47917687298366	5.901442911741818	1.043160065350942	-12.77751258509895	-509.2924788906813	-64.07739432670186	-39.54617716421592	-5.483424199873633	-1.949626613582616	-1.186099093419978	15.36187490844543	-2.499551821925623	4.086328149136702	-3.055448041607121	13.05662317771685	13.05662317771709	1.120245589745436	-1.155686535801638	3.548683048672757	-0.8128868968207061	-3.773715374501212e-08	2.068465780617758e-07	1.588092122129878e-07	2.800030632268916e-08	-1.601943803871951e-08	-6.389917357520656e-08	-1.789502799235407e-09
0.01	-0.03798514302259318	0.06802095282736019	0.8958208365951721	0.1962713559764573	-0.3228786257658344	-0.4681224508372742	-0.1380648418720326	0.07078726990382531	0.07078726990381577	-0.1744809976172066	-0.1035980665087541	-0.06683970205675331	0.002800954649869731	-0.05198420356341168	-0.01918436621748943	-0.01148222420921782	0.1478130135256536	-0.02454109644930468	0.04102678673373783	-0.03177424927896594	0.1262695418941127	0.1262695418941127	0.01014404468384358	-0.009795415719468827	0.03398372181624176	-0.008461269760317296	0.1271337696502619	-0.1062729663454	-0.03239049837971432	-0.2689708095220463	0.24355711595876	-0.02705727619751054	-0.06818330302104919	42.50347509452932	2.376326857631376	1.492721142969005	-10.70660942740466	-510.1575666800642	-71.98177033572439	-39.55905582662137	-5.014555927405154	-1.892125534387476	-1.124225653356958	14.38501181539802	-2.414769407184134	4.087301019645104	-3.194527151931435	12.32087794818382	12.3208779481837	0.9485379099697083	-0.8788329270980298	3.294045291311434	-0.8606583681169115	-1.068164801828869e-07	2.130476284547266e-07	3.189899651444092e-07	8.267745917646319e-08	-3.879622725867622e-07	-1.871113070464582e-07	-1.762373200082722e-08
0.02	-0.03875801287670726	0.0677349735359969	0.8956494461971236	0.1984708834810899	-0.3232439740870689	-0.4675109750041767	-0.1385341412413582	0.07266610608632289	0.07266610608632199	-0.1743309927952315	-0.1037428913339206	-0.06633480803955122	0.002674382016040142	-0.1023139068400158	-0.03794008877725263	-0.02276211116574759	0.2913859166822202	-0.04841742692865749	0.08111145683358506	-0.06179304979351892	0.24888941390524	0.2488894139052409	0.01977024945832049	-0.01908538492208062	0.06680058536094109	-0.01683899361982498	0.1206209880624214	-0.1111231337126951	-0.03093419466228582	-0.2597675345994775	0.2269640052339468	-0.01670783747921694	-0.06285061650256454	37.6112923907249	-1.165873790737142	1.947819887648606	-8.856004081820638	-509.8070477238544	-79.68367915574798	-39.59686706214595	-5.152524142512023	-1.863897882037477	-1.145631642882368	14.51385283462805	-2.366598627935257	3.897904822358584	-2.704358288724464	12.3266892011198	12.32668920112022	1.01667760787209	-1.054597232430257	3.315311394364148	-0.7961777166588582	-1.758958066207618e-07	2.192486788476775e-07	4.791707180758305e-07	1.373546120302372e-07	-7.59905107134805e-07	-3.103234405177098e-07	-3.345796120241903e-08
0.03	-0.04002623943345378	0.06726297260902792	0.8953658098730817	0.2020872501594442	-0.3238442552968838	-0.466504197718783	-0.1392945499917637	0.07575440153634806	0.07575440153635592	-0.1740860635788537	-0.1039794594192059	-0.06550764462500706	0.002464942430697893	-0.1510125596844861	-0.05644616269167754	-0.03396634117365262	0.4312758457034108	-0.07148215242999709	0.1200954891748245	-0.09004441037882388	0.3682213052180732	0.3682213052180727	0.02921339260037922	-0.02816029451495405	0.09839950366273389	-0.02500892211957524	0.1117288735938139	-0.09661679366324243	-0.02897605731541297	-0.2465341284315653	0.2126349695291341	-0.02173214456857685	-0.05602874712507749	32.87410754457177	1.39138048802548	2.058984191327421	-5.180993106251343	-509.1378123092065	-73.5054570407133	-39.65781440189695	-4.680724045643088	-1.841844365878988	-1.108150293221913	13.63479965056198	-2.252991907997703	3.876309767681972	-2.848881456950693	11.65419021951354	11.65419021951308	0.9078986118295282	-0.8236847552916531	3.047289999932625	-0.8214888130060665	-2.074206157109247e-07	2.466423028038167e-07	5.495020719495362e-07	1.694602383779029e-07	-9.683354040474101e-07	-3.597822157087679e-07	-3.602429985706829e-08
0.04	-0.04177189015669289	0.06660633449896758	0.8949700649262656	0.2070841634709498	-0.3246705002410633	-0.4651120486444397	-0.1403301436507243	0.08001956612414643	0.0800195661241463	-0.1737467497421357	-0.104304725986905	-0.06437147043707543	0.002174985881083517	-0.1977987401380855	-0.07486752539552011	-0.04518383572055374	0.5674952433125033	-0.09361017380190999	0.1581858146230785	-0.1168300315047997	0.4842632414568469	0.4842632414568432	0.03864717352070531	-0.03682508141086185	0.1286027400383542	-0.03294238647424739	0.1028367591252256	-0.08211045361381118	-0.02701791996869173	-0.2333007222636238	0.198305933824319	-0.0267564516579592	-0.0492068777475632	28.21479553652719	3.940928345105998	2.164607411817115	-1.703510434269965	-507.3573137835691	-67.1256626608414	-39.73965351869604	-4.77002966433774	-1.846955639921117	-1.148284550681587	13.7797465522085	-2.179257802049917	3.7191634437615	-2.411210396858579	11.66869818630793	11.66869818630799	1.014805163525579	-0.9725726930371595	3.036175009129535	-0.748884887643296	-2.38171104855774e-07	2.744728870396092e-07	6.179808608942168e-07	2.011004724264736e-07	-1.17339430843145e-06	-4.077203031002345e-07	-3.831707375817234e-08
